<svg width="28" height="27" viewBox="0 0 28 27" fill="none" xmlns="http://www.w3.org/2000/svg">
<path d="M5.39999 20.9268C6.79999 19.9729 8.18888 19.2412 9.56666 18.7317C10.9444 18.2222 12.4222 17.9675 14 17.9675C15.5778 17.9675 17.0611 18.2222 18.45 18.7317C19.8389 19.2412 21.2333 19.9729 22.6333 20.9268C23.6111 19.7561 24.3055 18.5745 24.7167 17.3821C25.1278 16.1897 25.3333 14.9322 25.3333 13.6097C25.3333 10.4661 24.25 7.83738 22.0833 5.72356C19.9167 3.60974 17.2222 2.55283 14 2.55283C10.7778 2.55283 8.08332 3.60974 5.91666 5.72356C3.74999 7.83738 2.66666 10.4661 2.66666 13.6097C2.66666 14.9322 2.87777 16.1897 3.29999 17.3821C3.72221 18.5745 4.42221 19.7561 5.39999 20.9268ZM14 14.5853C12.7111 14.5853 11.6278 14.1572 10.75 13.3008C9.87221 12.4444 9.43332 11.3875 9.43332 10.1301C9.43332 8.87261 9.87221 7.8157 10.75 6.95933C11.6278 6.10296 12.7111 5.67478 14 5.67478C15.2889 5.67478 16.3722 6.10296 17.25 6.95933C18.1278 7.8157 18.5667 8.87261 18.5667 10.1301C18.5667 11.3875 18.1278 12.4444 17.25 13.3008C16.3722 14.1572 15.2889 14.5853 14 14.5853ZM14 26.6179C12.1778 26.6179 10.4555 26.2764 8.83332 25.5935C7.2111 24.9106 5.79443 23.9783 4.58332 22.7967C3.37221 21.6152 2.41666 20.233 1.71666 18.6504C1.01666 17.0677 0.666656 15.3875 0.666656 13.6097C0.666656 11.8103 1.01666 10.1246 1.71666 8.55283C2.41666 6.98101 3.37221 5.60432 4.58332 4.42275C5.79443 3.24117 7.2111 2.30893 8.83332 1.626C10.4555 0.943072 12.1778 0.601608 14 0.601608C15.8444 0.601608 17.5722 0.943072 19.1833 1.626C20.7944 2.30893 22.2055 3.24117 23.4167 4.42275C24.6278 5.60432 25.5833 6.98101 26.2833 8.55283C26.9833 10.1246 27.3333 11.8103 27.3333 13.6097C27.3333 15.3875 26.9833 17.0677 26.2833 18.6504C25.5833 20.233 24.6278 21.6152 23.4167 22.7967C22.2055 23.9783 20.7944 24.9106 19.1833 25.5935C17.5722 26.2764 15.8444 26.6179 14 26.6179ZM14 24.6667C15.2222 24.6667 16.4167 24.4932 17.5833 24.1463C18.75 23.7994 19.9 23.1924 21.0333 22.3252C19.9 21.5447 18.7444 20.9485 17.5667 20.5366C16.3889 20.1246 15.2 19.9187 14 19.9187C12.8 19.9187 11.6111 20.1246 10.4333 20.5366C9.25555 20.9485 8.09999 21.5447 6.96666 22.3252C8.09999 23.1924 9.24999 23.7994 10.4167 24.1463C11.5833 24.4932 12.7778 24.6667 14 24.6667ZM14 12.6341C14.7555 12.6341 15.3722 12.4011 15.85 11.9349C16.3278 11.4688 16.5667 10.8672 16.5667 10.1301C16.5667 9.39294 16.3278 8.79131 15.85 8.32519C15.3722 7.85906 14.7555 7.626 14 7.626C13.2444 7.626 12.6278 7.85906 12.15 8.32519C11.6722 8.79131 11.4333 9.39294 11.4333 10.1301C11.4333 10.8672 11.6722 11.4688 12.15 11.9349C12.6278 12.4011 13.2444 12.6341 14 12.6341Z" fill="#EDEDED"/>
</svg>
