<svg width="50" height="50" viewBox="0 0 120 120" fill="none" xmlns="http://www.w3.org/2000/svg">
<rect width="120" height="120" rx="60" fill="#EDEDED"/>
<path d="M27.75 88.125C33 84.4583 38.2083 81.6458 43.375 79.6875C48.5417 77.7292 54.0833 76.75 60 76.75C65.9167 76.75 71.4792 77.7292 76.6875 79.6875C81.8958 81.6458 87.125 84.4583 92.375 88.125C96.0417 83.625 98.6458 79.0833 100.188 74.5C101.729 69.9167 102.5 65.0833 102.5 60C102.5 47.9167 98.4375 37.8125 90.3125 29.6875C82.1875 21.5625 72.0833 17.5 60 17.5C47.9167 17.5 37.8125 21.5625 29.6875 29.6875C21.5625 37.8125 17.5 47.9167 17.5 60C17.5 65.0833 18.2917 69.9167 19.875 74.5C21.4583 79.0833 24.0833 83.625 27.75 88.125ZM60 63.75C55.1667 63.75 51.1042 62.1042 47.8125 58.8125C44.5208 55.5208 42.875 51.4583 42.875 46.625C42.875 41.7917 44.5208 37.7292 47.8125 34.4375C51.1042 31.1458 55.1667 29.5 60 29.5C64.8333 29.5 68.8958 31.1458 72.1875 34.4375C75.4792 37.7292 77.125 41.7917 77.125 46.625C77.125 51.4583 75.4792 55.5208 72.1875 58.8125C68.8958 62.1042 64.8333 63.75 60 63.75ZM60 110C53.1667 110 46.7083 108.687 40.625 106.062C34.5417 103.437 29.2292 99.8542 24.6875 95.3125C20.1458 90.7708 16.5625 85.4583 13.9375 79.375C11.3125 73.2917 10 66.8333 10 60C10 53.0833 11.3125 46.6042 13.9375 40.5625C16.5625 34.5208 20.1458 29.2292 24.6875 24.6875C29.2292 20.1458 34.5417 16.5625 40.625 13.9375C46.7083 11.3125 53.1667 10 60 10C66.9167 10 73.3958 11.3125 79.4375 13.9375C85.4792 16.5625 90.7708 20.1458 95.3125 24.6875C99.8542 29.2292 103.437 34.5208 106.062 40.5625C108.687 46.6042 110 53.0833 110 60C110 66.8333 108.687 73.2917 106.062 79.375C103.437 85.4583 99.8542 90.7708 95.3125 95.3125C90.7708 99.8542 85.4792 103.437 79.4375 106.062C73.3958 108.687 66.9167 110 60 110ZM60 102.5C64.5833 102.5 69.0625 101.833 73.4375 100.5C77.8125 99.1667 82.125 96.8333 86.375 93.5C82.125 90.5 77.7917 88.2083 73.375 86.625C68.9583 85.0417 64.5 84.25 60 84.25C55.5 84.25 51.0417 85.0417 46.625 86.625C42.2083 88.2083 37.875 90.5 33.625 93.5C37.875 96.8333 42.1875 99.1667 46.5625 100.5C50.9375 101.833 55.4167 102.5 60 102.5ZM60 56.25C62.8333 56.25 65.1458 55.3542 66.9375 53.5625C68.7292 51.7708 69.625 49.4583 69.625 46.625C69.625 43.7917 68.7292 41.4792 66.9375 39.6875C65.1458 37.8958 62.8333 37 60 37C57.1667 37 54.8542 37.8958 53.0625 39.6875C51.2708 41.4792 50.375 43.7917 50.375 46.625C50.375 49.4583 51.2708 51.7708 53.0625 53.5625C54.8542 55.3542 57.1667 56.25 60 56.25Z" fill="#595959"/>
</svg>
