<svg width="21" height="26" viewBox="0 0 21 26" fill="none" xmlns="http://www.w3.org/2000/svg">
<path d="M3.675 20.8361C3.375 20.8361 3.1125 20.7278 2.8875 20.5111C2.6625 20.2944 2.55 20.0417 2.55 19.7528C2.55 19.4639 2.6625 19.2111 2.8875 18.9944C3.1125 18.7778 3.375 18.6694 3.675 18.6694C3.975 18.6694 4.2375 18.7778 4.4625 18.9944C4.6875 19.2111 4.8 19.4639 4.8 19.7528C4.8 20.0417 4.6875 20.2944 4.4625 20.5111C4.2375 20.7278 3.975 20.8361 3.675 20.8361V20.8361ZM10.5 20.8361C10.2 20.8361 9.9375 20.7278 9.7125 20.5111C9.4875 20.2944 9.375 20.0417 9.375 19.7528C9.375 19.4639 9.4875 19.2111 9.7125 18.9944C9.9375 18.7778 10.2 18.6694 10.5 18.6694C10.8 18.6694 11.0625 18.7778 11.2875 18.9944C11.5125 19.2111 11.625 19.4639 11.625 19.7528C11.625 20.0417 11.5125 20.2944 11.2875 20.5111C11.0625 20.7278 10.8 20.8361 10.5 20.8361ZM17.325 20.8361C17.025 20.8361 16.7625 20.7278 16.5375 20.5111C16.3125 20.2944 16.2 20.0417 16.2 19.7528C16.2 19.4639 16.3125 19.2111 16.5375 18.9944C16.7625 18.7778 17.025 18.6694 17.325 18.6694C17.625 18.6694 17.8875 18.7778 18.1125 18.9944C18.3375 19.2111 18.45 19.4639 18.45 19.7528C18.45 20.0417 18.3375 20.2944 18.1125 20.5111C17.8875 20.7278 17.625 20.8361 17.325 20.8361ZM0 15.4194V13.2528C0 10.6769 0.90625 8.42593 2.71875 6.5C4.53125 4.57407 6.75 3.4787 9.375 3.21389V0H11.625V3.21389C14.25 3.4787 16.4687 4.57407 18.2812 6.5C20.0938 8.42593 21 10.6769 21 13.2528V15.4194H0ZM2.25 13.2528H18.75C18.75 11.062 17.9437 9.19028 16.3312 7.6375C14.7187 6.08472 12.775 5.30833 10.5 5.30833C8.225 5.30833 6.28125 6.08472 4.66875 7.6375C3.05625 9.19028 2.25 11.062 2.25 13.2528ZM3.675 26C3.375 26 3.1125 25.8917 2.8875 25.675C2.6625 25.4583 2.55 25.2056 2.55 24.9167C2.55 24.6278 2.6625 24.375 2.8875 24.1583C3.1125 23.9417 3.375 23.8333 3.675 23.8333C3.975 23.8333 4.2375 23.9417 4.4625 24.1583C4.6875 24.375 4.8 24.6278 4.8 24.9167C4.8 25.2056 4.6875 25.4583 4.4625 25.675C4.2375 25.8917 3.975 26 3.675 26V26ZM10.5 26C10.2 26 9.9375 25.8917 9.7125 25.675C9.4875 25.4583 9.375 25.2056 9.375 24.9167C9.375 24.6278 9.4875 24.375 9.7125 24.1583C9.9375 23.9417 10.2 23.8333 10.5 23.8333C10.8 23.8333 11.0625 23.9417 11.2875 24.1583C11.5125 24.375 11.625 24.6278 11.625 24.9167C11.625 25.2056 11.5125 25.4583 11.2875 25.675C11.0625 25.8917 10.8 26 10.5 26ZM17.325 26C17.025 26 16.7625 25.8917 16.5375 25.675C16.3125 25.4583 16.2 25.2056 16.2 24.9167C16.2 24.6278 16.3125 24.375 16.5375 24.1583C16.7625 23.9417 17.025 23.8333 17.325 23.8333C17.625 23.8333 17.8875 23.9417 18.1125 24.1583C18.3375 24.375 18.45 24.6278 18.45 24.9167C18.45 25.2056 18.3375 25.4583 18.1125 25.675C17.8875 25.8917 17.625 26 17.325 26Z" fill="#707070"/>
</svg>
