<svg width="29" height="31" viewBox="0 0 29 31" fill="none" xmlns="http://www.w3.org/2000/svg">
<path d="M14.4515 11.104V6.70586H10.0342V4.56045H14.4515V0.162354H16.5889V4.56045H20.9705V6.70586H16.5889V11.104H14.4515ZM8.21736 30.1624C7.50489 30.1624 6.89929 29.9121 6.40057 29.4115C5.90184 28.9109 5.65247 28.303 5.65247 27.5879C5.65247 26.8727 5.90184 26.2649 6.40057 25.7643C6.89929 25.2637 7.50489 25.0134 8.21736 25.0134C8.92983 25.0134 9.53542 25.2637 10.0342 25.7643C10.5329 26.2649 10.7822 26.8727 10.7822 27.5879C10.7822 28.303 10.5329 28.9109 10.0342 29.4115C9.53542 29.9121 8.92983 30.1624 8.21736 30.1624ZM22.6092 30.1624C21.8967 30.1624 21.2912 29.9121 20.7924 29.4115C20.2937 28.9109 20.0443 28.303 20.0443 27.5879C20.0443 26.8727 20.2937 26.2649 20.7924 25.7643C21.2912 25.2637 21.8967 25.0134 22.6092 25.0134C23.3217 25.0134 23.9273 25.2637 24.426 25.7643C24.9247 26.2649 25.1741 26.8727 25.1741 27.5879C25.1741 28.303 24.9247 28.9109 24.426 29.4115C23.9273 29.9121 23.3217 30.1624 22.6092 30.1624ZM8.21736 22.7607C7.2199 22.7607 6.48962 22.3554 6.02652 21.545C5.56342 20.7345 5.56935 19.9121 6.04433 19.0777L8.21736 15.1087L2.87385 3.70228H0.0952225V1.55687H4.22754L10.2835 14.5724H20.6856L26.2428 4.56045L28.0952 5.56164L22.6448 15.4663C22.4311 15.8715 22.1402 16.1814 21.7721 16.396C21.404 16.6105 20.9705 16.7178 20.4718 16.7178H9.78479L7.57614 20.6153H25.1741V22.7607H8.21736Z" fill="#EDEDED"/>
</svg>
