<svg width="17" height="26" viewBox="0 0 17 26" fill="none" xmlns="http://www.w3.org/2000/svg">
<path d="M13.9023 18.8589C14.7659 18.8589 15.4981 19.2052 16.0988 19.8976C16.6996 20.5901 17 21.434 17 22.4295C17 23.4249 16.6996 24.2688 16.0988 24.9613C15.4981 25.6538 14.7659 26 13.9023 26C13.2264 26 12.6162 25.7674 12.0718 25.3021C11.5273 24.8369 11.1612 24.2256 10.9735 23.4682H2.72225L1.56764 25.5131C1.43622 25.7511 1.26256 25.9026 1.04666 25.9675C0.830757 26.0325 0.628934 25.9892 0.441192 25.8377C0.234677 25.6646 0.0985643 25.4536 0.0328547 25.2047C-0.0328548 24.9559 7.55343e-08 24.7124 0.131419 24.4744L5.25676 15.5156C3.8487 14.8881 2.70817 13.9089 1.83517 12.578C0.962176 11.2472 0.450579 9.70537 0.300386 7.95256H15.6764C15.5262 9.70537 15.0006 11.2418 14.0994 12.5618C13.1982 13.8818 12.0718 14.8556 10.72 15.4831L12.3534 18.4045C12.0906 18.556 11.8371 18.7291 11.593 18.9238C11.349 19.1186 11.1518 19.335 11.0017 19.573L9.00221 16.0025C8.88956 16.0458 8.73937 16.0674 8.55163 16.0674H7.45334C7.2656 16.0674 7.10602 16.0458 6.9746 16.0025L3.8487 21.5206H10.9735C11.1612 20.7416 11.5226 20.1032 12.0577 19.6055C12.5928 19.1078 13.2076 18.8589 13.9023 18.8589V18.8589ZM13.9023 24.0524C14.2965 24.0524 14.6298 23.8955 14.902 23.5818C15.1742 23.268 15.3103 22.8839 15.3103 22.4295C15.3103 21.975 15.1742 21.5909 14.902 21.2772C14.6298 20.9634 14.2965 20.8065 13.9023 20.8065C13.508 20.8065 13.1748 20.9634 12.9025 21.2772C12.6303 21.5909 12.4942 21.975 12.4942 22.4295C12.4942 22.8839 12.6303 23.268 12.9025 23.5818C13.1748 23.8955 13.508 24.0524 13.9023 24.0524ZM7.96024 14.1199C9.18056 14.1199 10.2929 13.7412 11.2973 12.9838C12.3018 12.2264 13.048 11.1985 13.5362 9.90012H2.44064C2.89122 11.1985 3.61872 12.2264 4.62314 12.9838C5.62755 13.7412 6.73992 14.1199 7.96024 14.1199ZM5.84815 6.7191C5.94202 6.11319 5.92794 5.58302 5.80591 5.12859C5.68388 4.67416 5.40696 4.11153 4.97515 3.4407C4.56212 2.81315 4.29928 2.25593 4.18664 1.76904C4.07399 1.28215 4.06461 0.692468 4.15848 0H5.00331C4.94699 0.714107 4.97515 1.28215 5.0878 1.70412C5.20044 2.12609 5.45389 2.64003 5.84815 3.24594C6.22363 3.85185 6.47708 4.40907 6.6085 4.9176C6.73992 5.42613 6.76808 6.02663 6.69299 6.7191H5.84815ZM8.01657 6.7191C8.07289 5.94008 8.04473 5.33958 7.93208 4.9176C7.81944 4.49563 7.56599 4.00333 7.17173 3.4407C6.7587 2.83479 6.49116 2.28298 6.36913 1.78527C6.2471 1.28756 6.23302 0.692468 6.32689 0H7.17173C7.07786 0.56263 7.08724 1.07116 7.19989 1.52559C7.31253 1.98002 7.58476 2.55347 8.01657 3.24594C8.39205 3.83021 8.64081 4.38202 8.76284 4.90137C8.88487 5.42072 8.91773 6.02663 8.8614 6.7191H8.01657ZM10.1568 6.7191C10.2319 5.96171 10.2131 5.36663 10.1005 4.93383C9.98785 4.50104 9.7344 4.00333 9.34014 3.4407C8.90834 2.81315 8.63142 2.25052 8.50939 1.75281C8.38736 1.2551 8.37327 0.670828 8.46714 0H9.31198C9.21811 0.56263 9.23219 1.07116 9.35422 1.52559C9.47626 1.98002 9.75318 2.55347 10.185 3.24594C10.5605 3.80857 10.8092 4.34956 10.9313 4.86891C11.0533 5.38826 11.0768 6.00499 11.0017 6.7191H10.1568Z" fill="#707070"/>
</svg>
