<svg width="34" height="31" viewBox="0 0 34 31" fill="none" xmlns="http://www.w3.org/2000/svg">
<path d="M17.3175 30.1624L15.6262 28.648C12.7112 26.0014 10.305 23.7162 8.40745 21.7926C6.50995 19.869 4.99745 18.1501 3.86995 16.6357C2.74245 15.1214 1.95183 13.7503 1.49808 12.5225C1.04433 11.2947 0.817451 10.0532 0.817451 8.7981C0.817451 6.34244 1.64933 4.28923 3.31308 2.63848C4.97683 0.987728 7.03245 0.162354 9.47995 0.162354C11.0475 0.162354 12.4981 0.530703 13.8318 1.2674C15.1656 2.0041 16.3275 3.06822 17.3175 4.45976C18.4725 2.98636 19.6962 1.90178 20.9887 1.20601C22.2812 0.510239 23.67 0.162354 25.155 0.162354C27.6025 0.162354 29.6581 0.987728 31.3218 2.63848C32.9856 4.28923 33.8175 6.34244 33.8175 8.7981C33.8175 10.0532 33.5906 11.2947 33.1368 12.5225C32.6831 13.7503 31.8925 15.1214 30.7649 16.6357C29.6375 18.1501 28.125 19.869 26.2275 21.7926C24.33 23.7162 21.9237 26.0014 19.0087 28.648L17.3175 30.1624ZM17.3175 26.9291C20.095 24.3915 22.3843 22.2156 24.1856 20.4011C25.9868 18.5866 27.4168 16.9973 28.4756 15.633C29.5343 14.2688 30.2768 13.0546 30.7031 11.9905C31.1293 10.9263 31.3425 9.86222 31.3425 8.7981C31.3425 6.99728 30.765 5.51706 29.61 4.35744C28.455 3.19782 26.97 2.61802 25.155 2.61802C23.7525 2.61802 22.4462 3.04776 21.2362 3.90724C20.0262 4.76672 19.05 5.97409 18.3075 7.52934H16.2862C15.5712 6.00137 14.6087 4.80083 13.3987 3.9277C12.1887 3.05458 10.8825 2.61802 9.47995 2.61802C7.66495 2.61802 6.17995 3.19782 5.02495 4.35744C3.86995 5.51706 3.29245 6.99728 3.29245 8.7981C3.29245 9.86222 3.50558 10.9332 3.93183 12.0109C4.35808 13.0887 5.10058 14.3165 6.15933 15.6944C7.21808 17.0723 8.65495 18.6617 10.47 20.4625C12.285 22.2633 14.5675 24.4188 17.3175 26.9291Z" fill="#EDEDED"/>
</svg>
