<svg width="22" height="18" viewBox="0 0 22 18" fill="none" xmlns="http://www.w3.org/2000/svg">
<path d="M3.825 18C3.625 18 3.45 17.925 3.3 17.775C3.15 17.625 3.075 17.45 3.075 17.25V16.2H2.75C1.98333 16.2 1.33333 15.9333 0.8 15.4C0.266667 14.8667 0 14.2167 0 13.45V7.35C0 6.5 0.258333 5.85417 0.775 5.4125C1.29167 4.97083 1.9 4.75 2.6 4.75V2.6C2.6 1.83333 2.84167 1.20833 3.325 0.725C3.80833 0.241667 4.43333 0 5.2 0H16.825C17.5917 0 18.2125 0.241667 18.6875 0.725C19.1625 1.20833 19.4 1.83333 19.4 2.6V4.75C20.1 4.75 20.7083 4.97083 21.225 5.4125C21.7417 5.85417 22 6.5 22 7.35V13.45C22 14.2167 21.7333 14.8667 21.2 15.4C20.6667 15.9333 20.0167 16.2 19.25 16.2H18.925V17.25C18.925 17.45 18.85 17.625 18.7 17.775C18.55 17.925 18.375 18 18.175 18C17.975 18 17.8 17.925 17.65 17.775C17.5 17.625 17.425 17.45 17.425 17.25V16.2H4.575V17.25C4.575 17.45 4.5 17.625 4.35 17.775C4.2 17.925 4.025 18 3.825 18V18ZM2.75 14.7H19.25C19.5833 14.7 19.875 14.575 20.125 14.325C20.375 14.075 20.5 13.7833 20.5 13.45V7.35C20.5 7.01667 20.4 6.75 20.2 6.55C20 6.35 19.7333 6.25 19.4 6.25C19.0667 6.25 18.8 6.35 18.6 6.55C18.4 6.75 18.3 7.01667 18.3 7.35V11.75H3.7V7.35C3.7 7.01667 3.6 6.75 3.4 6.55C3.2 6.35 2.93333 6.25 2.6 6.25C2.26667 6.25 2 6.35 1.8 6.55C1.6 6.75 1.5 7.01667 1.5 7.35V13.45C1.5 13.7833 1.625 14.075 1.875 14.325C2.125 14.575 2.41667 14.7 2.75 14.7V14.7ZM5.2 10.25H16.8V7.35C16.8 6.83333 16.9167 6.40417 17.15 6.0625C17.3833 5.72083 17.6333 5.45 17.9 5.25V2.6C17.9 2.26667 17.8 2 17.6 1.8C17.4 1.6 17.1333 1.5 16.8 1.5H5.2C4.86667 1.5 4.6 1.6 4.4 1.8C4.2 2 4.1 2.26667 4.1 2.6V5.25C4.36667 5.45 4.61667 5.72083 4.85 6.0625C5.08333 6.40417 5.2 6.83333 5.2 7.35V10.25Z" fill="#707070"/>
</svg>
